<svg xmlns="http://www.w3.org/2000/svg" width="1400" height="900" viewBox="0 0 1400 900">
<defs>
<linearGradient id="hero" x1="0" x2="1"><stop stop-color="#fffaf4"/><stop offset="1" stop-color="#f7e7d4"/></linearGradient>
<filter id="shadow"><feDropShadow dx="0" dy="24" stdDeviation="30" flood-color="#92400e" flood-opacity=".16"/></filter>
</defs>
<rect width="1400" height="900" fill="#fbf7f2"/>
<rect x="70" y="70" width="1260" height="760" rx="34" fill="white" filter="url(#shadow)"/>
<rect x="70" y="70" width="1260" height="76" rx="34" fill="#fffaf4"/>
<text x="120" y="120" font-family="Georgia" font-size="32" fill="#111827">MAISON MALAAK</text>
<text x="700" y="120" font-family="Arial" font-size="18" fill="#334155">Accueil</text>
<text x="790" y="120" font-family="Arial" font-size="18" fill="#334155">À propos</text>
<text x="895" y="120" font-family="Arial" font-size="18" fill="#334155">Services</text>
<text x="990" y="120" font-family="Arial" font-size="18" fill="#334155">Formations</text>
<rect x="1130" y="92" width="145" height="42" rx="14" fill="#8b5e34"/>
<text x="1165" y="119" font-family="Arial" font-weight="800" font-size="16" fill="white">Réserver</text>
<rect x="90" y="160" width="1220" height="450" fill="url(#hero)"/>
<text x="140" y="315" font-family="Georgia" font-weight="700" font-size="70" fill="#1f2937">Révélez votre</text>
<text x="140" y="395" font-family="Georgia" font-weight="700" font-size="70" fill="#1f2937">élégance naturelle</text>
<text x="145" y="455" font-family="Arial" font-size="26" fill="#6b7280">Institut de beauté, bien-être et formation à St-Hubert</text>
<rect x="145" y="505" width="220" height="58" rx="16" fill="#8b5e34"/>
<text x="178" y="542" font-family="Arial" font-weight="800" font-size="18" fill="white">Découvrir nos services</text>
<circle cx="1040" cy="385" r="170" fill="#ead7c3"/>
<circle cx="1040" cy="335" r="62" fill="#c9a47d"/>
<rect x="960" y="410" width="160" height="170" rx="80" fill="#c9a47d"/>
<path d="M880 260 C950 190 1125 185 1195 275" stroke="#fff" stroke-width="10" opacity=".8" fill="none"/>
<rect x="140" y="665" width="220" height="95" rx="20" fill="#fff7ed"/>
<text x="190" y="720" font-family="Arial" font-size="44" fill="#8b5e34">☾</text>
<text x="390" y="720" font-family="Arial" font-size="44" fill="#8b5e34">✦</text>
<text x="590" y="720" font-family="Arial" font-size="44" fill="#8b5e34">♡</text>
<text x="145" y="790" font-family="Arial" font-size="20" fill="#8b5e34">Soins esthétiques</text>
<text x="360" y="790" font-family="Arial" font-size="20" fill="#8b5e34">Formations</text>
<text x="560" y="790" font-family="Arial" font-size="20" fill="#8b5e34">Service personnalisé</text>
</svg>