<svg xmlns="http://www.w3.org/2000/svg" width="1400" height="900" viewBox="0 0 1400 900">
<defs>
<linearGradient id="hero" x1="0" x2="1"><stop stop-color="#f8fafc"/><stop offset="1" stop-color="#eaf2ff"/></linearGradient>
<filter id="shadow"><feDropShadow dx="0" dy="24" stdDeviation="30" flood-color="#0f172a" flood-opacity=".18"/></filter>
</defs>
<rect width="1400" height="900" fill="#f8fafc"/>
<rect x="70" y="70" width="1260" height="760" rx="34" fill="white" filter="url(#shadow)"/>
<rect x="70" y="70" width="1260" height="76" rx="34" fill="#ffffff"/>
<text x="120" y="120" font-family="Arial" font-weight="900" font-size="34" fill="#0f172a">mortacc</text>
<text x="250" y="118" font-family="Arial" font-weight="700" font-size="18" fill="#2563eb">ACCOUNTING</text>
<text x="760" y="120" font-family="Arial" font-size="20" fill="#334155">Home</text>
<text x="840" y="120" font-family="Arial" font-size="20" fill="#334155">Services</text>
<text x="950" y="120" font-family="Arial" font-size="20" fill="#334155">Resources</text>
<rect x="1110" y="92" width="145" height="42" rx="14" fill="#2563eb"/>
<text x="1142" y="119" font-family="Arial" font-weight="800" font-size="16" fill="white">Client Portal</text>
<rect x="90" y="160" width="1220" height="440" fill="url(#hero)"/>
<text x="135" y="285" font-family="Arial" font-weight="900" font-size="72" fill="#0f172a">Accounting</text>
<text x="135" y="365" font-family="Arial" font-weight="900" font-size="72" fill="#0f172a">that drives your</text>
<text x="135" y="445" font-family="Arial" font-weight="900" font-size="72" fill="#2563eb">business forward.</text>
<text x="140" y="505" font-family="Arial" font-size="26" fill="#64748b">Trusted accounting, tax, and advisory services for Canadian businesses.</text>
<rect x="140" y="545" width="150" height="54" rx="14" fill="#2563eb"/>
<text x="172" y="579" font-family="Arial" font-weight="800" font-size="18" fill="white">Our Services</text>
<rect x="320" y="545" width="190" height="54" rx="14" fill="white" stroke="#cbd5e1"/>
<text x="350" y="579" font-family="Arial" font-weight="800" font-size="18" fill="#0f172a">Book Consultation</text>
<polygon points="760,600 1260,600 1260,160 840,160" fill="#dbeafe"/>
<rect x="835" y="230" width="360" height="300" rx="20" fill="#e2e8f0"/>
<line x1="840" y1="530" x2="1195" y2="230" stroke="#475569" stroke-width="7" opacity=".25"/>
<rect x="140" y="665" width="1120" height="90" rx="22" fill="#ffffff"/>
<text x="190" y="720" font-family="Arial" font-weight="900" font-size="34" fill="#2563eb">200+</text>
<text x="370" y="720" font-family="Arial" font-weight="900" font-size="34" fill="#2563eb">10+</text>
<text x="530" y="720" font-family="Arial" font-weight="900" font-size="34" fill="#2563eb">98%</text>
<text x="700" y="720" font-family="Arial" font-weight="900" font-size="34" fill="#2563eb">24/7</text>
<text x="190" y="748" font-family="Arial" font-size="16" fill="#64748b">Happy Clients</text>
<text x="370" y="748" font-family="Arial" font-size="16" fill="#64748b">Years Experience</text>
<text x="530" y="748" font-family="Arial" font-size="16" fill="#64748b">Client Retention</text>
<text x="700" y="748" font-family="Arial" font-size="16" fill="#64748b">Support</text>
</svg>