<svg xmlns="http://www.w3.org/2000/svg" width="1400" height="900" viewBox="0 0 1400 900">
<defs>
<linearGradient id="bg" x1="0" x2="1"><stop stop-color="#fff7ed"/><stop offset="1" stop-color="#fff1f2"/></linearGradient>
<linearGradient id="gold" x1="0" x2="1"><stop stop-color="#a16207"/><stop offset="1" stop-color="#f59e0b"/></linearGradient>
<filter id="shadow"><feDropShadow dx="0" dy="30" stdDeviation="35" flood-color="#92400e" flood-opacity=".18"/></filter>
</defs>
<rect width="1400" height="900" fill="url(#bg)"/>
<circle cx="1110" cy="150" r="190" fill="#fb923c" opacity=".17"/>
<circle cx="180" cy="770" r="180" fill="#f59e0b" opacity=".12"/>
<rect x="145" y="130" width="1110" height="640" rx="48" fill="#ffffff" filter="url(#shadow)"/>
<rect x="145" y="130" width="1110" height="82" rx="48" fill="#faf7f2"/>
<circle cx="210" cy="172" r="30" fill="#8b5e34"/>
<text x="198" y="184" font-size="34" font-family="Georgia" fill="#fff">M</text>
<text x="270" y="184" font-size="30" font-family="Georgia" fill="#111827">Maison Malaak</text>
<rect x="1040" y="155" width="125" height="38" rx="18" fill="#8b5e34"/>
<text x="1066" y="181" font-size="18" font-family="Arial" fill="#fff" font-weight="700">Réserver</text>
<text x="220" y="365" font-size="72" font-family="Georgia" fill="#111827" font-weight="700">Révélez votre</text>
<text x="220" y="445" font-size="72" font-family="Georgia" fill="#111827" font-weight="700">élégance naturelle</text>
<text x="225" y="510" font-size="30" font-family="Arial" fill="#6b7280">Institut de beauté, bien-être et formation</text>
<rect x="225" y="555" width="230" height="62" rx="18" fill="#8b5e34"/>
<text x="268" y="595" font-size="23" font-family="Arial" fill="#fff" font-weight="700">Découvrir</text>
<rect x="770" y="270" width="330" height="330" rx="45" fill="#f8efe3"/>
<circle cx="935" cy="435" r="100" fill="#d6b48c" opacity=".6"/>
<text x="875" y="458" font-size="90" font-family="Georgia" fill="#8b5e34">M</text>
<text x="220" y="710" font-size="52" font-family="Georgia" fill="#111827" font-weight="700">Maison Malaak</text>
<text x="220" y="760" font-size="30" font-family="Arial" fill="#64748b">Luxury beauty & wellness website</text>
</svg>