<svg xmlns="http://www.w3.org/2000/svg" width="1400" height="900" viewBox="0 0 1400 900">
<defs>
<linearGradient id="bg" x1="0" x2="1"><stop stop-color="#eaf3ff"/><stop offset="1" stop-color="#f8fbff"/></linearGradient>
<linearGradient id="blue" x1="0" x2="1"><stop stop-color="#2563eb"/><stop offset="1" stop-color="#38bdf8"/></linearGradient>
<filter id="shadow"><feDropShadow dx="0" dy="30" stdDeviation="35" flood-color="#0f172a" flood-opacity=".20"/></filter>
</defs>
<rect width="1400" height="900" fill="url(#bg)"/>
<circle cx="1120" cy="120" r="180" fill="#2563eb" opacity=".16"/>
<circle cx="180" cy="760" r="180" fill="#38bdf8" opacity=".14"/>
<rect x="160" y="125" width="1080" height="650" rx="46" fill="#ffffff" filter="url(#shadow)"/>
<rect x="160" y="125" width="1080" height="78" rx="46" fill="#0f172a"/>
<circle cx="225" cy="164" r="13" fill="#2563eb"/>
<circle cx="265" cy="164" r="13" fill="#cbd5e1"/>
<circle cx="305" cy="164" r="13" fill="#94a3b8"/>
<rect x="220" y="270" width="185" height="40" rx="12" fill="#dbeafe"/>
<rect x="220" y="340" width="220" height="34" rx="10" fill="#eef2ff"/>
<rect x="220" y="404" width="220" height="34" rx="10" fill="#eef2ff"/>
<rect x="220" y="468" width="220" height="34" rx="10" fill="#eef2ff"/>
<rect x="500" y="270" width="520" height="360" rx="32" fill="#f8fafc"/>
<rect x="545" y="320" width="120" height="95" rx="20" fill="#eff6ff"/>
<rect x="700" y="320" width="120" height="95" rx="20" fill="#eff6ff"/>
<rect x="855" y="320" width="120" height="95" rx="20" fill="#eff6ff"/>
<text x="585" y="380" font-size="34" font-family="Arial" fill="#2563eb" font-weight="700">128</text>
<text x="740" y="380" font-size="34" font-family="Arial" fill="#2563eb" font-weight="700">342</text>
<text x="900" y="380" font-size="34" font-family="Arial" fill="#f97316" font-weight="700">24</text>
<path d="M555 555 C610 510 650 590 705 535 C760 480 815 570 870 515 C925 460 950 510 990 470" stroke="#2563eb" stroke-width="12" fill="none" stroke-linecap="round"/>
<text x="215" y="705" font-size="52" font-family="Arial" fill="#0f172a" font-weight="800">Mortacc</text>
<text x="215" y="755" font-size="30" font-family="Arial" fill="#64748b">Corporate services platform</text>
</svg>