<svg width="1400" height="900" viewBox="0 0 1400 900" xmlns="http://www.w3.org/2000/svg">
<defs><linearGradient id="bg" x1="0" y1="0" x2="1" y2="1"><stop stop-color="#0b0b0b"/><stop offset="1" stop-color="#211910"/></linearGradient><linearGradient id="g" x1="0" y1="0" x2="1" y2="1"><stop stop-color="#b98e4f"/><stop offset="1" stop-color="#e0c17c"/></linearGradient><filter id="s"><feDropShadow dx="0" dy="20" stdDeviation="22" flood-color="#000" flood-opacity=".25"/></filter></defs>
<rect width="1400" height="900" rx="42" fill="#f7f1e8"/>
<rect x="85" y="90" width="1230" height="690" rx="34" fill="url(#bg)" filter="url(#s)"/>
<text x="160" y="150" font-family="Georgia,serif" font-size="46" fill="#d8b66e">FM</text><text x="163" y="180" font-family="Arial" font-size="16" fill="#fff" letter-spacing="7">SYSTEMS</text>
<text x="160" y="395" font-family="Georgia,serif" font-size="86" fill="#fff">Digital Experiences</text><text x="160" y="488" font-family="Georgia,serif" font-size="86" fill="#d8b66e">That Elevate Brands.</text>
<rect x="160" y="560" width="210" height="55" rx="8" fill="url(#g)"/><text x="265" y="595" text-anchor="middle" fill="#fff" font-family="Arial" font-weight="700" font-size="15">VIEW WORK →</text>
<rect x="740" y="230" width="430" height="320" rx="20" fill="#fffaf1" opacity=".96"/><rect x="780" y="275" width="350" height="28" rx="14" fill="#e9d9bd"/><rect x="780" y="335" width="260" height="34" rx="10" fill="#caa367"/><rect x="780" y="400" width="315" height="20" rx="10" fill="#e9d9bd"/><rect x="780" y="435" width="270" height="20" rx="10" fill="#eee2cd"/><circle cx="1120" cy="430" r="145" fill="#d7b47a" opacity=".45"/>
</svg>
