<svg width="1400" height="1000" viewBox="0 0 1400 1000" xmlns="http://www.w3.org/2000/svg"><defs><linearGradient id="g" x1="0" y1="0" x2="1" y2="1"><stop stop-color="#fffaf0"/><stop offset="1" stop-color="#ead7b7"/></linearGradient><filter id="s"><feDropShadow dx="0" dy="35" stdDeviation="35" flood-color="#6b4c26" flood-opacity=".22"/></filter></defs><rect width="1400" height="1000" fill="none"/><circle cx="1000" cy="300" r="300" fill="#ead8b9" opacity=".55"/><rect x="170" y="155" width="900" height="560" rx="36" fill="#15120f" filter="url(#s)"/><rect x="202" y="200" width="836" height="468" rx="14" fill="url(#g)"/><text x="260" y="285" font-family="Georgia,serif" font-size="62" fill="#2a241d">Maison Malaak</text><text x="260" y="405" font-family="Georgia,serif" font-size="82" fill="#2a241d">Luxury Beauty</text><text x="260" y="492" font-family="Georgia,serif" font-size="82" fill="#b98e4f" font-style="italic">Experience</text><rect x="260" y="560" width="210" height="52" rx="10" fill="#b98e4f"/><text x="365" y="593" text-anchor="middle" font-family="Inter,Arial" font-size="14" font-weight="800" fill="#fff">VIEW PROJECT</text><rect x="850" y="300" width="120" height="260" rx="60" fill="#dfc79f" opacity=".65"/><rect x="120" y="720" width="1020" height="48" rx="24" fill="#d9d3c8"/><rect x="1010" y="92" width="280" height="370" rx="30" fill="#fffdf8" stroke="#d8b982" stroke-width="2" filter="url(#s)"/><text x="1050" y="162" font-family="Georgia,serif" font-size="34" fill="#2a241d">Mortacc</text><rect x="1050" y="215" width="180" height="18" rx="9" fill="#dbeafe"/><rect x="1050" y="265" width="210" height="60" rx="16" fill="#eff6ff"/><rect x="1050" y="350" width="210" height="60" rx="16" fill="#eff6ff"/><rect x="760" y="660" width="440" height="250" rx="26" fill="#fffdf8" stroke="#d8b982" stroke-width="2" filter="url(#s)"/><text x="805" y="735" font-family="Georgia,serif" font-size="42" fill="#2a241d">FM Systems</text><rect x="805" y="780" width="285" height="18" rx="9" fill="#ead8b9"/><rect x="805" y="825" width="220" height="38" rx="12" fill="#b98e4f"/></svg>