<svg xmlns="http://www.w3.org/2000/svg" viewBox="0 0 900 680"><defs><linearGradient id="a" x1="0" x2="1"><stop stop-color="#07111f"/><stop offset="1" stop-color="#111827"/></linearGradient><linearGradient id="b" x1="0" x2="1" y1="0" y2="1"><stop stop-color="#67e8f9"/><stop offset=".55" stop-color="#3b82f6"/><stop offset="1" stop-color="#8b5cf6"/></linearGradient><filter id="s"><feDropShadow dx="0" dy="24" stdDeviation="28" flood-color="#000" flood-opacity=".35"/></filter></defs><rect width="900" height="680" rx="42" fill="url(#a)"/><g opacity=".35"><circle cx="700" cy="70" r="180" fill="#2563eb"/><circle cx="130" cy="560" r="210" fill="#06b6d4"/></g><g filter="url(#s)"><rect x="80" y="80" width="740" height="500" rx="32" fill="#0b1220" stroke="#26364d"/><rect x="110" y="112" width="680" height="56" rx="18" fill="#121f33"/><circle cx="143" cy="140" r="7" fill="#ef4444"/><circle cx="166" cy="140" r="7" fill="#f59e0b"/><circle cx="189" cy="140" r="7" fill="#22c55e"/><rect x="126" y="215" width="280" height="22" rx="11" fill="#38bdf8"/><rect x="126" y="260" width="420" height="52" rx="14" fill="#e2e8f0" opacity=".92"/><rect x="126" y="330" width="520" height="16" rx="8" fill="#64748b"/><rect x="126" y="360" width="430" height="16" rx="8" fill="#64748b"/><rect x="126" y="425" width="170" height="54" rx="18" fill="url(#b)"/><rect x="320" y="425" width="170" height="54" rx="18" fill="#172033" stroke="#3b82f6"/><g transform="translate(595 230)"><rect width="145" height="145" rx="28" fill="url(#b)"/><path d="M36 105V41h69v18H58v13h37v17H58v16H36Z" fill="#fff"/><circle cx="116" cy="32" r="8" fill="#fff"/></g></g><g stroke="#38bdf8" stroke-width="3" opacity=".55"><path d="M650 390h95v55h-95z" fill="none"/><path d="M650 418h-60M745 418h35M698 390v-48M698 445v38"/></g></svg>