<svg width="1400" height="900" viewBox="0 0 1400 900" xmlns="http://www.w3.org/2000/svg">
<defs>
<linearGradient id="bg" x1="0" y1="0" x2="1" y2="1"><stop stop-color="#05070D"/><stop offset=".55" stop-color="#0B1220"/><stop offset="1" stop-color="#151515"/></linearGradient>
<linearGradient id="b" x1="0" y1="0" x2="1" y2="1"><stop stop-color="#4EA1FF"/><stop offset="1" stop-color="#2563EB"/></linearGradient>
<filter id="s"><feDropShadow dx="0" dy="24" stdDeviation="26" flood-color="#000" flood-opacity=".45"/></filter>
</defs>
<rect width="1400" height="900" rx="42" fill="#F6F1EA"/>
<rect x="75" y="80" width="1250" height="690" rx="34" fill="url(#bg)" filter="url(#s)"/>
<rect x="75" y="80" width="1250" height="76" rx="34" fill="#070B12"/>
<circle cx="116" cy="119" r="10" fill="#9F6D65"/><circle cx="147" cy="119" r="10" fill="#B89D7A"/><circle cx="178" cy="119" r="10" fill="#8A9B73"/>
<text x="220" y="128" fill="#F8FAFC" font-family="Georgia, serif" font-size="31" font-weight="700">Mortacc</text>
<text x="710" y="126" text-anchor="middle" fill="#CBD5E1" font-family="Arial" font-size="14">How it works</text>
<text x="842" y="126" text-anchor="middle" fill="#CBD5E1" font-family="Arial" font-size="14">Features</text>
<text x="1000" y="126" text-anchor="middle" fill="#CBD5E1" font-family="Arial" font-size="14">Corporate Services</text>
<rect x="1130" y="99" width="140" height="38" rx="19" fill="url(#b)"/>
<text x="1200" y="123" text-anchor="middle" fill="#fff" font-family="Arial" font-size="13" font-weight="700">Start free trial</text>
<rect x="170" y="238" width="335" height="34" rx="17" fill="#10284B"/>
<text x="337" y="261" text-anchor="middle" fill="#8EC5FF" font-family="Arial" font-size="13" font-weight="700">Built for Canadian accounting firms</text>
<text x="170" y="356" fill="#F8FAFC" font-family="Georgia, serif" font-size="76" font-weight="700">The smarter way to</text>
<text x="170" y="442" fill="#4EA1FF" font-family="Georgia, serif" font-size="82" font-weight="700" font-style="italic">run your practice.</text>
<text x="170" y="508" fill="#CBD5E1" font-family="Arial" font-size="22">Client onboarding, document collection, compliance,</text>
<text x="170" y="541" fill="#CBD5E1" font-family="Arial" font-size="22">and practice management in one secure platform.</text>
<rect x="170" y="595" width="170" height="52" rx="26" fill="url(#b)"/>
<text x="255" y="628" text-anchor="middle" fill="#fff" font-family="Arial" font-size="15" font-weight="800">Start trial</text>
<rect x="760" y="232" width="430" height="360" rx="28" fill="rgba(255,255,255,.06)" stroke="rgba(255,255,255,.13)"/>
<rect x="792" y="268" width="170" height="18" rx="9" fill="#4EA1FF"/>
<rect x="792" y="314" width="350" height="42" rx="14" fill="rgba(255,255,255,.10)"/>
<rect x="792" y="386" width="110" height="96" rx="18" fill="rgba(78,161,255,.16)" stroke="rgba(78,161,255,.28)"/>
<rect x="920" y="386" width="110" height="96" rx="18" fill="rgba(255,255,255,.06)" stroke="rgba(255,255,255,.10)"/>
<rect x="1048" y="386" width="110" height="96" rx="18" fill="rgba(255,255,255,.06)" stroke="rgba(255,255,255,.10)"/>
<rect x="792" y="516" width="350" height="18" rx="9" fill="rgba(255,255,255,.10)"/>
<rect x="792" y="552" width="250" height="18" rx="9" fill="rgba(255,255,255,.08)"/>
<text x="170" y="720" fill="#B9AFA3" font-family="Arial" font-size="16">Secure onboarding • Corporate services • Compliance-ready workflows</text>
</svg>