<svg width="900" height="620" viewBox="0 0 900 620" fill="none" xmlns="http://www.w3.org/2000/svg">
<rect width="900" height="620" rx="40" fill="#EFF6FF"/>
<circle cx="170" cy="130" r="130" fill="#93C5FD" opacity="0.45"/>
<rect x="80" y="80" width="740" height="450" rx="32" fill="#FFFFFF"/>
<rect x="120" y="120" width="660" height="65" rx="20" fill="#0F172A"/>
<text x="450" y="160" text-anchor="middle" fill="#FFFFFF" font-family="Arial" font-size="26" font-weight="700">MORTACC</text>
<rect x="145" y="235" width="280" height="34" rx="10" fill="#0F172A"/>
<rect x="145" y="290" width="430" height="18" rx="9" fill="#64748B"/>
<rect x="145" y="325" width="390" height="18" rx="9" fill="#CBD5E1"/>
<rect x="145" y="385" width="160" height="52" rx="17" fill="#2563EB"/>
<rect x="585" y="225" width="150" height="220" rx="26" fill="#DBEAFE"/>
<rect x="615" y="260" width="90" height="16" rx="8" fill="#2563EB"/>
<rect x="615" y="305" width="90" height="14" rx="7" fill="#93C5FD"/>
<rect x="615" y="345" width="90" height="14" rx="7" fill="#93C5FD"/>
<rect x="615" y="385" width="90" height="14" rx="7" fill="#93C5FD"/>
</svg>