<svg width="1400" height="900" viewBox="0 0 1400 900" xmlns="http://www.w3.org/2000/svg">
    <defs><linearGradient id="bg" x1="0" y1="0" x2="1" y2="1"><stop stop-color="#fbf7ef"/><stop offset="1" stop-color="#f1e4d3"/></linearGradient><filter id="shadow"><feDropShadow dx="0" dy="24" stdDeviation="28" flood-color="#6b4c26" flood-opacity=".18"/></filter></defs>
    <rect width="1400" height="900" rx="42" fill="#f7f1e8"/>
        <rect x="88" y="82" width="1224" height="696" rx="34" fill="url(#bg)" filter="url(#shadow)"/>
        <rect x="88" y="82" width="1224" height="76" rx="34" fill="rgba(255,255,255,.72)"/>
        <text x="152" y="130" fill="#2a241d" font-family="Georgia,serif" font-size="33" font-weight="700">Maison Malaak</text>
        <text x="738" y="126" fill="#766957" font-family="Inter,Arial" font-size="14" font-weight="700">ACCUEIL</text>
        <text x="835" y="126" fill="#766957" font-family="Inter,Arial" font-size="14">SERVICES</text>
        <text x="948" y="126" fill="#766957" font-family="Inter,Arial" font-size="14">FORMATIONS</text>
        <rect x="1108" y="101" width="136" height="36" rx="18" fill="#b98e4f"/>
        <text x="1176" y="123" text-anchor="middle" fill="#fff" font-family="Inter,Arial" font-size="12" font-weight="800">RÉSERVER</text>
        <text x="170" y="340" fill="#2a241d" font-family="Georgia,serif" font-size="76" font-weight="600">Révélez votre</text>
        <text x="170" y="428" fill="#b98e4f" font-family="Georgia,serif" font-size="82" font-weight="600" font-style="italic">éclat naturel.</text>
        <text x="174" y="495" fill="#766957" font-family="Inter,Arial" font-size="22">Soins experts, formations personnalisées,</text>
        <text x="174" y="528" fill="#766957" font-family="Inter,Arial" font-size="22">et expérience beauté haut de gamme.</text>
        <rect x="170" y="585" width="220" height="54" rx="8" fill="#b98e4f"/>
        <text x="280" y="619" text-anchor="middle" fill="#fff" font-family="Inter,Arial" font-size="14" font-weight="800">PRENDRE RENDEZ-VOUS</text>
        <circle cx="1060" cy="440" r="185" fill="#ead5b5" opacity=".7"/>
        <rect x="872" y="235" width="312" height="420" rx="156" fill="#fff8ec" stroke="#d8b982" stroke-width="2"/>
        <path d="M918 602 C1000 515,1110 515,1165 603" stroke="#b98e4f" stroke-width="12" fill="none" stroke-linecap="round" opacity=".70"/>
        <circle cx="1030" cy="405" r="86" fill="#dfc79f" opacity=".55"/>
        <path d="M988 388 C1040 315,1118 366,1070 452 C1038 510,942 484,988 388Z" fill="#cfa66c" opacity=".35"/>
        </svg>