<svg width="1400" height="900" viewBox="0 0 1400 900" xmlns="http://www.w3.org/2000/svg">
    <defs><linearGradient id="bg" x1="0" y1="0" x2="1" y2="1"><stop stop-color="#05070D"/><stop offset="1" stop-color="#0B1220"/></linearGradient><filter id="shadow"><feDropShadow dx="0" dy="24" stdDeviation="28" flood-color="#6b4c26" flood-opacity=".18"/></filter></defs>
    <rect width="1400" height="900" rx="42" fill="#f7f1e8"/>
        <rect x="82" y="78" width="1236" height="704" rx="34" fill="url(#bg)" filter="url(#shadow)"/>
        <rect x="82" y="78" width="1236" height="78" rx="34" fill="#0c1320"/>
        <circle cx="125" cy="118" r="10" fill="#b97d73"/><circle cx="158" cy="118" r="10" fill="#d8b66e"/><circle cx="191" cy="118" r="10" fill="#8fae7d"/>
        <text x="230" y="130" fill="#f8fafc" font-family="Georgia,serif" font-size="34" font-weight="700">Mortacc</text>
        <text x="724" y="127" text-anchor="middle" fill="#cbd5e1" font-family="Inter,Arial" font-size="14">How it works</text>
        <text x="865" y="127" text-anchor="middle" fill="#cbd5e1" font-family="Inter,Arial" font-size="14">Features</text>
        <rect x="1130" y="98" width="144" height="40" rx="20" fill="#3b82f6"/>
        <text x="1202" y="124" text-anchor="middle" fill="#fff" font-family="Inter,Arial" font-size="13" font-weight="800">Start trial</text>
        <rect x="170" y="235" width="350" height="38" rx="19" fill="#10284B"/>
        <text x="345" y="260" text-anchor="middle" fill="#93c5fd" font-family="Inter,Arial" font-size="13" font-weight="800">For Canadian accounting firms</text>
        <text x="170" y="360" fill="#f8fafc" font-family="Georgia,serif" font-size="78" font-weight="700">The smarter way to</text>
        <text x="170" y="450" fill="#60a5fa" font-family="Georgia,serif" font-size="86" font-weight="700" font-style="italic">run your practice.</text>
        <text x="174" y="520" fill="#cbd5e1" font-family="Inter,Arial" font-size="22">Client onboarding, payments, engagement letters,</text>
        <text x="174" y="553" fill="#cbd5e1" font-family="Inter,Arial" font-size="22">and firm dashboards in one polished system.</text>
        <rect x="170" y="610" width="190" height="54" rx="10" fill="#3b82f6"/>
        <text x="265" y="644" text-anchor="middle" fill="#fff" font-family="Inter,Arial" font-size="14" font-weight="800">VIEW PLATFORM</text>
        <rect x="815" y="238" width="380" height="370" rx="24" fill="#f8fafc" opacity=".97"/>
        <rect x="853" y="282" width="144" height="18" rx="9" fill="#bfdbfe"/><rect x="853" y="328" width="270" height="18" rx="9" fill="#dbeafe"/>
        <rect x="853" y="380" width="292" height="74" rx="16" fill="#eff6ff"/><rect x="880" y="405" width="92" height="20" rx="10" fill="#60a5fa"/><rect x="993" y="405" width="112" height="20" rx="10" fill="#cbd5e1"/>
        <rect x="853" y="486" width="292" height="74" rx="16" fill="#eff6ff"/><rect x="880" y="512" width="122" height="20" rx="10" fill="#3b82f6"/><rect x="1023" y="512" width="82" height="20" rx="10" fill="#cbd5e1"/>
        </svg>