<svg width="900" height="560" viewBox="0 0 900 560" fill="none" xmlns="http://www.w3.org/2000/svg">
<rect width="900" height="560" rx="36" fill="#050B18"/>
<rect x="28" y="28" width="844" height="504" rx="30" fill="#0B1224" stroke="#1E3A8A"/>
<circle cx="72" cy="72" r="7" fill="#EF4444"/><circle cx="96" cy="72" r="7" fill="#F59E0B"/><circle cx="120" cy="72" r="7" fill="#22C55E"/>
<rect x="54" y="112" width="190" height="360" rx="24" fill="#0F172A"/>
<rect x="80" y="145" width="120" height="16" rx="8" fill="#38BDF8" opacity=".9"/>
<rect x="80" y="185" width="128" height="10" rx="5" fill="#64748B"/><rect x="80" y="217" width="98" height="10" rx="5" fill="#64748B"/><rect x="80" y="249" width="140" height="10" rx="5" fill="#64748B"/>
<rect x="284" y="112" width="548" height="96" rx="24" fill="#111C36"/>
<text x="314" y="154" fill="white" font-family="Inter,Arial" font-size="30" font-weight="800">Website System</text>
<text x="314" y="184" fill="#93C5FD" font-family="Inter,Arial" font-size="16" font-weight="700">Client Journey</text>
<rect x="284" y="240" width="160" height="112" rx="22" fill="#13203D"/><rect x="476" y="240" width="160" height="112" rx="22" fill="#13203D"/><rect x="668" y="240" width="164" height="112" rx="22" fill="#13203D"/>
<text x="310" y="282" fill="#E2E8F0" font-family="Inter,Arial" font-size="16" font-weight="800">New lead</text><text x="310" y="318" fill="#38BDF8" font-family="Inter,Arial" font-size="30" font-weight="900">94%</text>
<text x="502" y="282" fill="#E2E8F0" font-family="Inter,Arial" font-size="16" font-weight="800">Quote sent</text><text x="502" y="318" fill="#38BDF8" font-family="Inter,Arial" font-size="30" font-weight="900">3.8x</text>
<text x="694" y="282" fill="#E2E8F0" font-family="Inter,Arial" font-size="16" font-weight="800">Project booked</text><text x="694" y="318" fill="#38BDF8" font-family="Inter,Arial" font-size="30" font-weight="900">Live</text>
<path d="M304 438C360 388 398 426 450 386C506 343 560 410 618 362C672 318 734 344 812 292" stroke="url(#g)" stroke-width="10" stroke-linecap="round"/>
<path d="M304 472H812" stroke="#243656" stroke-width="2"/><path d="M304 392H812" stroke="#243656" stroke-width="2" opacity=".5"/>
<defs><linearGradient id="g" x1="304" y1="438" x2="812" y2="292"><stop stop-color="#2563EB"/><stop offset=".5" stop-color="#38BDF8"/><stop offset="1" stop-color="#A78BFA"/></linearGradient></defs>
</svg>